<mxfile host="65bd71144e">
    <diagram id="A3qWTJxBf30MFO97emnY" name="Page-1">
        <mxGraphModel dx="1377" dy="1045" grid="1" gridSize="10" guides="1" tooltips="1" connect="1" arrows="1" fold="1" page="1" pageScale="1" pageWidth="850" pageHeight="1100" math="0" shadow="0">
            <root>
                <mxCell id="0"/>
                <mxCell id="1" parent="0"/>
                <mxCell id="84" value="" style="strokeWidth=1;shadow=0;dashed=0;align=center;html=1;shape=mxgraph.mockup.containers.browserWindow;rSize=0;strokeColor=#666666;strokeColor2=#008cff;strokeColor3=#c4c4c4;mainText=,;recursiveResize=0;" parent="1" vertex="1">
                    <mxGeometry x="10" y="10" width="830" height="600" as="geometry"/>
                </mxCell>
                <mxCell id="85" value="aut.dig" style="strokeWidth=1;shadow=0;dashed=0;align=center;html=1;shape=mxgraph.mockup.containers.anchor;fontSize=17;fontColor=#666666;align=left;" parent="84" vertex="1">
                    <mxGeometry x="60" y="12" width="110" height="26" as="geometry"/>
                </mxCell>
                <mxCell id="86" value="https://autorizacao.digital/signeddoc-signature" style="strokeWidth=1;shadow=0;dashed=0;align=center;html=1;shape=mxgraph.mockup.containers.anchor;rSize=0;fontSize=17;fontColor=#666666;align=left;" parent="84" vertex="1">
                    <mxGeometry x="130" y="60" width="250" height="26" as="geometry"/>
                </mxCell>
                <mxCell id="116" value="CONFIRM" style="rounded=1;whiteSpace=wrap;html=1;align=center;fillColor=#008a00;strokeColor=#005700;fontColor=#ffffff;" vertex="1" parent="84">
                    <mxGeometry x="190" y="550" width="150" height="30" as="geometry"/>
                </mxCell>
                <mxCell id="117" value="CLEAR" style="rounded=1;whiteSpace=wrap;html=1;align=center;fillColor=#0050ef;strokeColor=#001DBC;fontColor=#ffffff;" vertex="1" parent="84">
                    <mxGeometry x="350" y="550" width="140" height="30" as="geometry"/>
                </mxCell>
                <mxCell id="118" value="&lt;font color=&quot;#ffffff&quot;&gt;GO BACK&lt;/font&gt;" style="rounded=1;whiteSpace=wrap;html=1;align=center;fillColor=#0050ef;strokeColor=#001DBC;fontColor=#ffffff;" vertex="1" parent="84">
                    <mxGeometry x="500" y="550" width="140" height="30" as="geometry"/>
                </mxCell>
                <mxCell id="102" value="&lt;b&gt;&lt;font style=&quot;font-size: 15px&quot;&gt;aut.dig&lt;/font&gt;&lt;/b&gt;" style="text;html=1;strokeColor=none;fillColor=none;align=center;verticalAlign=middle;whiteSpace=wrap;rounded=0;" parent="1" vertex="1">
                    <mxGeometry x="445" y="158" width="40" height="20" as="geometry"/>
                </mxCell>
                <mxCell id="103" value="" style="shape=mxgraph.mockup.markup.scratchOut;shadow=0;dashed=0;html=1;strokeColor=#999999;strokeWidth=2;" parent="1" vertex="1">
                    <mxGeometry x="370" y="153" width="55" height="30" as="geometry"/>
                </mxCell>
                <mxCell id="98" value="" style="html=1;shadow=0;dashed=0;shape=mxgraph.bootstrap.rrect;rSize=5;strokeColor=#999999;strokeWidth=1;fillColor=#FFFFFF;fontColor=#6C767D;whiteSpace=wrap;align=left;verticalAlign=middle;spacingLeft=10;fontSize=14;spacing=10;" parent="1" vertex="1">
                    <mxGeometry x="90" y="210" width="710" height="320" as="geometry"/>
                </mxCell>
            </root>
        </mxGraphModel>
    </diagram>
</mxfile>